Coordinates
version=1
nRows=16
nColumns=40
inDegrees=yes

Units are S.I. units (second, meters, Newtons, ...)
If the header above contains a line with 'inDegrees', this indicates whether rotational values are in degrees (yes) or radians (no).

endheader
time	pelvis_tilt	pelvis_list	pelvis_rotation	pelvis_tx	pelvis_ty	pelvis_tz	hip_flexion_r	hip_adduction_r	hip_rotation_r	knee_angle_r	knee_angle_r_beta	ankle_angle_r	subtalar_angle_r	mtp_angle_r	hip_flexion_l	hip_adduction_l	hip_rotation_l	knee_angle_l	knee_angle_l_beta	ankle_angle_l	subtalar_angle_l	mtp_angle_l	lumbar_extension	lumbar_bending	lumbar_rotation	arm_flex_r	arm_add_r	arm_rot_r	elbow_flex_r	pro_sup_r	wrist_flex_r	wrist_dev_r	arm_flex_l	arm_add_l	arm_rot_l	elbow_flex_l	pro_sup_l	wrist_flex_l	wrist_dev_l
      9.97500000	     88.25270179	     67.54138857	     88.95237558	      0.37951117	      0.61724285	      0.83395986	     51.41864707	     -9.80059706	     -7.60242771	     25.07526918	      0.43764601	     -3.00765826	      0.00000000	      0.00000000	     47.08658207	    -15.56314687	    -14.48495783	     20.18693247	      0.35232844	     -4.49082019	      0.00000000	      0.00000000	    -30.07001935	     -8.16537454	      3.75192278	     38.40565004	     -1.57985578	      5.80309884	     12.27980967	     36.90319810	      0.00000000	      0.00000000	     39.22776300	     -1.03305500	    -25.34343310	     17.31290264	     36.27715204	      0.00000000	      0.00000000
      9.98000000	     88.21554139	     67.27217547	     88.92806076	      0.38034611	      0.61737793	      0.83343512	     51.74655440	     -9.74671918	     -7.53333919	     25.00244507	      0.43637499	     -3.13312718	      0.00000000	      0.00000000	     47.38057562	    -15.59467566	    -14.50637737	     20.09058154	      0.35064680	     -4.64491300	      0.00000000	      0.00000000	    -30.12382390	     -8.14872574	      3.51057786	     39.51576831	     -1.01120690	      4.71503801	     10.91822883	     36.15765644	      0.00000000	      0.00000000	     40.35574434	     -0.68135656	    -30.32613805	     16.59954126	     35.51057733	      0.00000000	      0.00000000
      9.98500000	     88.16181994	     67.13394320	     88.90634199	      0.38140845	      0.61764827	      0.83291714	     52.00767945	     -9.68891101	     -7.43983099	     25.02992345	      0.43685458	     -3.24408041	      0.00000000	      0.00000000	     47.63049866	    -15.67872242	    -14.61370563	     20.18342205	      0.35226717	     -4.69606842	      0.00000000	      0.00000000	    -30.25624591	     -8.31420948	      3.75199601	     39.12541685	     -1.58557822	      6.69954559	     11.80821955	     37.68427282	      0.00000000	      0.00000000	     39.50135047	     -1.12810307	    -24.92365387	     17.59027617	     37.28843978	      0.00000000	      0.00000000
      9.99000000	     88.21218155	     66.83152498	     88.91882512	      0.38220013	      0.61758706	      0.83228035	     52.37122933	     -9.73165921	     -7.54146460	     25.02836584	      0.43682739	     -3.27668374	      0.00000000	      0.00000000	     48.02590187	    -15.65003548	    -14.50267730	     20.15146307	      0.35170938	     -4.81001629	      0.00000000	      0.00000000	    -30.28995519	     -8.22067148	      3.45614956	     39.98325405	     -1.03278768	      4.95675952	     10.95109516	     36.74379913	      0.00000000	      0.00000000	     40.72907100	     -0.80216818	    -29.92060319	     16.63962350	     36.16121240	      0.00000000	      0.00000000
      9.99500000	     88.18444768	     66.66721600	     88.91899870	      0.38319684	      0.61781646	      0.83170853	     52.66954286	     -9.71989857	     -7.55937715	     25.11346151	      0.43831259	     -3.34293670	      0.00000000	      0.00000000	     48.30741017	    -15.70390293	    -14.56291250	     20.22861010	      0.35305585	     -4.85354696	      0.00000000	      0.00000000	    -30.40280404	     -8.37779481	      3.77050775	     39.20527844	     -1.76654089	      6.61331719	     12.55394872	     37.93063420	      0.00000000	      0.00000000	     40.13592507	     -1.19437991	    -24.65319622	     17.25590517	     37.50497440	      0.00000000	      0.00000000
     10.00000000	     88.19167113	     66.55443548	     88.89882956	      0.38404632	      0.61796421	      0.83129581	     52.87008939	     -9.72253077	     -7.64594576	     25.14259119	      0.43882100	     -3.51045099	      0.00000000	      0.00000000	     48.51038859	    -15.74891852	    -14.63721361	     20.26107038	      0.35362239	     -4.97237072	      0.00000000	      0.00000000	    -30.58467027	     -8.43830780	      3.79088223	     39.27787742	     -2.02604420	      8.07191649	     12.75584122	     38.62145482	      0.00000000	      0.00000000	     39.66549652	     -1.51948558	    -21.88657749	     18.05978256	     38.38158013	      0.00000000	      0.00000000
     10.00500000	     88.18039503	     66.25847471	     88.87007904	      0.38483535	      0.61801454	      0.83078594	     53.19707299	     -9.67208685	     -7.56027421	     25.02677741	      0.43679967	     -3.60532174	      0.00000000	      0.00000000	     48.82485256	    -15.75844209	    -14.60758413	     20.14630738	      0.35161940	     -5.13246028	      0.00000000	      0.00000000	    -30.64884112	     -8.36552680	      3.45783697	     40.71552067	     -1.03519462	      4.93300010	     11.05019120	     36.89422024	      0.00000000	      0.00000000	     41.53475328	     -0.82301191	    -29.80531553	     16.65842939	     36.44844567	      0.00000000	      0.00000000
     10.01000000	     88.17898158	     66.00309572	     88.87386183	      0.38580871	      0.61811669	      0.83010418	     53.55664657	     -9.67578356	     -7.55903499	     25.06562807	      0.43747774	     -3.66426108	      0.00000000	      0.00000000	     49.16716069	    -15.76392402	    -14.54528628	     20.10938274	      0.35097494	     -5.23481671	      0.00000000	      0.00000000	    -30.64748840	     -8.42018459	      3.47253407	     40.93949709	     -1.16716562	      5.90959684	     10.94550542	     37.25848239	      0.00000000	      0.00000000	     40.89608748	     -0.98403237	    -26.95991054	     17.80455401	     36.97354551	      0.00000000	      0.00000000
     10.01500000	     88.12869355	     65.65471776	     88.88414079	      0.38695398	      0.61835389	      0.82936207	     53.98778508	     -9.59712142	     -7.33914915	     24.99151491	      0.43618422	     -3.77302999	      0.00000000	      0.00000000	     49.49784857	    -15.71351506	    -14.28100270	     19.83665215	      0.34621489	     -5.37258286	      0.00000000	      0.00000000	    -30.60729762	     -8.63648718	      3.90723860	     39.46063345	     -2.20013985	      7.00777176	     13.83910254	     38.47542387	      0.00000000	      0.00000000	     40.45730637	     -1.38876928	    -22.02395810	     18.21898244	     38.21836742	      0.00000000	      0.00000000
     10.02000000	     88.15189202	     65.61286909	     88.82516786	      0.38740728	      0.61840261	      0.82912031	     54.07918352	     -9.59885665	     -7.54402807	     24.99562031	      0.43625587	     -3.95756750	      0.00000000	      0.00000000	     49.69261783	    -15.84168334	    -14.62455174	     20.11038548	      0.35099244	     -5.43209304	      0.00000000	      0.00000000	    -30.88214310	     -8.52956418	      3.48017122	     41.64785846	     -0.91220503	      4.15045444	     10.79149946	     36.59571510	      0.00000000	      0.00000000	     42.20822852	     -0.80890142	    -29.11572904	     16.89392192	     36.22192652	      0.00000000	      0.00000000
     10.02500000	     88.11782329	     65.37326318	     88.80544599	      0.38824525	      0.61857955	      0.82848404	     54.40514643	     -9.55373061	     -7.52002793	     24.99364514	      0.43622140	     -4.05629106	      0.00000000	      0.00000000	     49.99805411	    -15.88437347	    -14.65637926	     20.10424580	      0.35088528	     -5.50209847	      0.00000000	      0.00000000	    -30.92776932	     -8.60311316	      3.52415872	     41.95771070	     -0.78974707	      3.33061595	     10.78236721	     35.87126747	      0.00000000	      0.00000000	     42.54571189	     -0.80947926	    -29.22457728	     16.83074646	     35.40348865	      0.00000000	      0.00000000
     10.03000000	     88.09966904	     65.23782990	     88.73600696	      0.38916718	      0.61892863	      0.82805264	     54.67685461	     -9.51392364	     -7.65897350	     25.07357715	      0.43761648	     -4.22250142	      0.00000000	      0.00000000	     50.18144572	    -15.96816320	    -14.70144774	     20.07245111	      0.35033036	     -5.61531405	      0.00000000	      0.00000000	    -31.08321303	     -8.73459508	      3.62777896	     42.00999697	     -1.03750573	      5.01832895	     10.94908073	     36.81441180	      0.00000000	      0.00000000	     41.76927251	     -1.11105260	    -25.64824394	     18.04079440	     36.57806545	      0.00000000	      0.00000000
     10.03500000	     88.06914531	     64.94049009	     88.72628377	      0.38997067	      0.61903899	      0.82736174	     55.02265182	     -9.46989425	     -7.55938020	     25.01005071	      0.43650773	     -4.25476118	      0.00000000	      0.00000000	     50.55021597	    -15.99113028	    -14.68393831	     20.06488566	      0.35019832	     -5.63257937	      0.00000000	      0.00000000	    -31.09104621	     -8.78257738	      3.64153000	     42.43794842	     -0.78564765	      3.13454141	     10.80399103	     35.81792087	      0.00000000	      0.00000000	     43.04062728	     -0.82492510	    -28.81910550	     16.88989291	     35.49911087	      0.00000000	      0.00000000
     10.04000000	     88.06751127	     64.79233385	     88.68894407	      0.39079721	      0.61907307	      0.82694264	     55.22133231	     -9.43081819	     -7.56075740	     24.95251339	      0.43550352	     -4.42978835	      0.00000000	      0.00000000	     50.76801490	    -16.02741841	    -14.69989913	     20.07626698	      0.35039696	     -5.75086551	      0.00000000	      0.00000000	    -31.25169523	     -8.81559468	      3.63111217	     42.83132540	     -0.68371692	      2.56245798	     10.71256183	     35.15218007	      0.00000000	      0.00000000	     43.39350777	     -0.82930531	    -28.92262558	     16.84137534	     34.78947593	      0.00000000	      0.00000000
     10.04500000	     88.01514521	     64.76065982	     88.68101204	      0.39160744	      0.61922105	      0.82665902	     55.32482893	     -9.40166521	     -7.57472756	     24.93882687	      0.43526464	     -4.52628474	      0.00000000	      0.00000000	     50.84953607	    -16.07325454	    -14.79586971	     20.08925975	      0.35062373	     -5.76670525	      0.00000000	      0.00000000	    -31.54228833	     -8.95908325	      3.79341240	     42.55873643	     -1.10478696	      3.97969782	     11.52238681	     36.20145235	      0.00000000	      0.00000000	     42.96738986	     -1.09694981	    -25.34640832	     17.52743800	     35.95179309	      0.00000000	      0.00000000
     10.05000000	     88.01268265	     64.43025453	     88.66935018	      0.39252302	      0.61927141	      0.82587369	     55.73057039	     -9.36696885	     -7.51420962	     24.91544124	      0.43485648	     -4.55019588	      0.00000000	      0.00000000	     51.27517870	    -16.07619733	    -14.69047122	     20.08194565	      0.35049607	     -5.90790628	      0.00000000	      0.00000000	    -31.47978197	     -8.96868694	      3.64951463	     43.20209102	     -0.96102122	      4.63851657	     10.72711842	     36.34897895	      0.00000000	      0.00000000	     42.89591871	     -1.10307745	    -25.71901322	     18.04771827	     36.24643296	      0.00000000	      0.00000000
